HIERARCHY
ROOT hip
{
  OFFSET 55.9141 150.688 -64.7739
  CHANNELS 6 Xposition Yposition Zposition Zrotation Xrotation Yrotation
  JOINT abdomen
  {
    OFFSET 0 20.6881 -0.73152
    CHANNELS 3 Zrotation Xrotation Yrotation
    JOINT chest
    {
      OFFSET 0 11.7043 -0.48768
      CHANNELS 3 Zrotation Xrotation Yrotation
      JOINT neck
      {
        OFFSET 0 22.1894 -2.19456
        CHANNELS 3 Zrotation Xrotation Yrotation
        JOINT head
        {
          OFFSET -0.24384 7.07133 1.2192
          CHANNELS 3 Zrotation Xrotation Yrotation
          JOINT leftEye
          {
            OFFSET 4.14528 8.04674 8.04672
            CHANNELS 3 Zrotation Xrotation Yrotation
            End Site
            {
              OFFSET 1 0 0
            }
          }
          JOINT rightEye
          {
            OFFSET -3.6576 8.04674 8.04672
            CHANNELS 3 Zrotation Xrotation Yrotation
            End Site
            {
              OFFSET 1 0 0
            }
          }
        }
      }
      JOINT rCollar
      {
        OFFSET -2.68224 19.2634 -4.8768
        CHANNELS 3 Zrotation Xrotation Yrotation
        JOINT rShldr
        {
          OFFSET -8.77824 -1.95073 1.46304
          CHANNELS 3 Zrotation Xrotation Yrotation
          JOINT rForeArm
          {
            OFFSET -28.1742 -1.7115 0.48768
            CHANNELS 3 Zrotation Xrotation Yrotation
            JOINT rHand
            {
              OFFSET -22.5879 0.773209 7.07136
              CHANNELS 3 Zrotation Xrotation Yrotation
              JOINT rThumb1
              {
                OFFSET -1.2192 -0.487915 3.41376
                CHANNELS 3 Zrotation Xrotation Yrotation
                JOINT rThumb2
                {
                  OFFSET -3.37035 -0.52449 3.41376
                  CHANNELS 3 Zrotation Xrotation Yrotation
                  End Site
                  {
                    OFFSET -1.78271 -1.18214 1.43049
                  }
                }
              }
              JOINT rIndex1
              {
                OFFSET -7.75947 0.938293 5.60832
                CHANNELS 3 Zrotation Xrotation Yrotation
                JOINT rIndex2
                {
                  OFFSET -2.54057 -0.884171 1.56538
                  CHANNELS 3 Zrotation Xrotation Yrotation
                  End Site
                  {
                    OFFSET -1.62519 -0.234802 1.16502
                  }
                }
              }
              JOINT rMid1
              {
                OFFSET -8.24714 1.18213 3.41376
                CHANNELS 3 Zrotation Xrotation Yrotation
                JOINT rMid2
                {
                  OFFSET -3.10165 -0.590103 1.0647
                  CHANNELS 3 Zrotation Xrotation Yrotation
                  End Site
                  {
                    OFFSET -2.48547 -0.328903 0.83742
                  }
                }
              }
              JOINT rRing1
              {
                OFFSET -8.82822 0.546677 1.51678
                CHANNELS 3 Zrotation Xrotation Yrotation
                JOINT rRing2
                {
                  OFFSET -2.60934 -0.819778 -0.0198488
                  CHANNELS 3 Zrotation Xrotation Yrotation
                  End Site
                  {
                    OFFSET -2.33842 -0.294052 0.168128
                  }
                }
              }
              JOINT rPinky1
              {
                OFFSET -8.27202 -0.0477905 -0.4584
                CHANNELS 3 Zrotation Xrotation Yrotation
                JOINT rPinky2
                {
                  OFFSET -1.82734 -0.647385 -0.700984
                  CHANNELS 3 Zrotation Xrotation Yrotation
                  End Site
                  {
                    OFFSET -1.69225 -0.51767 -0.607171
                  }
                }
              }
            }
          }
        }
      }
      JOINT lCollar
      {
        OFFSET 2.68224 19.2634 -4.8768
        CHANNELS 3 Zrotation Xrotation Yrotation
        JOINT lShldr
        {
          OFFSET 8.77824 -1.95073 1.46304
          CHANNELS 3 Zrotation Xrotation Yrotation
          JOINT lForeArm
          {
            OFFSET 28.1742 -1.7115 0.48768
            CHANNELS 3 Zrotation Xrotation Yrotation
            JOINT lHand
            {
              OFFSET 22.5879 0.773209 7.07136
              CHANNELS 3 Zrotation Xrotation Yrotation
              JOINT lThumb1
              {
                OFFSET 1.2192 -0.487915 3.41376
                CHANNELS 3 Zrotation Xrotation Yrotation
                JOINT lThumb2
                {
                  OFFSET 3.37035 -0.52449 3.41376
                  CHANNELS 3 Zrotation Xrotation Yrotation
                  End Site
                  {
                    OFFSET 1.78271 -1.18214 1.43049
                  }
                }
              }
              JOINT lIndex1
              {
                OFFSET 7.75947 0.938293 5.60832
                CHANNELS 3 Zrotation Xrotation Yrotation
                JOINT lIndex2
                {
                  OFFSET 2.54057 -0.884171 1.56538
                  CHANNELS 3 Zrotation Xrotation Yrotation
                  End Site
                  {
                    OFFSET 1.62519 -0.234802 1.16502
                  }
                }
              }
              JOINT lMid1
              {
                OFFSET 8.24714 1.18213 3.41376
                CHANNELS 3 Zrotation Xrotation Yrotation
                JOINT lMid2
                {
                  OFFSET 3.10165 -0.590103 1.0647
                  CHANNELS 3 Zrotation Xrotation Yrotation
                  End Site
                  {
                    OFFSET 2.48547 -0.328903 0.83742
                  }
                }
              }
              JOINT lRing1
              {
                OFFSET 8.82822 0.546677 1.51678
                CHANNELS 3 Zrotation Xrotation Yrotation
                JOINT lRing2
                {
                  OFFSET 2.60934 -0.819778 -0.0198488
                  CHANNELS 3 Zrotation Xrotation Yrotation
                  End Site
                  {
                    OFFSET 2.33842 -0.294052 0.168128
                  }
                }
              }
              JOINT lPinky1
              {
                OFFSET 8.27202 -0.0477905 -0.4584
                CHANNELS 3 Zrotation Xrotation Yrotation
                JOINT lPinky2
                {
                  OFFSET 1.82734 -0.647385 -0.700984
                  CHANNELS 3 Zrotation Xrotation Yrotation
                  End Site
                  {
                    OFFSET 1.69225 -0.51767 -0.607171
                  }
                }
              }
            }
          }
        }
      }
    }
  }
  JOINT rButtock
  {
    OFFSET -8.77824 4.35084 1.2192
    CHANNELS 3 Zrotation Xrotation Yrotation
    JOINT rThigh
    {
      OFFSET 0 -1.70687 -2.19456
      CHANNELS 3 Zrotation Xrotation Yrotation
      JOINT rShin
      {
        OFFSET 0 -36.8199 0.73152
        CHANNELS 3 Zrotation Xrotation Yrotation
        JOINT rFoot
        {
          OFFSET 0.73152 -45.1104 -5.12064
          CHANNELS 3 Zrotation Xrotation Yrotation
          End Site
          {
            OFFSET -1.1221 -3.69964 12.103
          }
        }
      }
    }
  }
  JOINT lButtock
  {
    OFFSET 8.77824 4.35084 1.2192
    CHANNELS 3 Zrotation Xrotation Yrotation
    JOINT lThigh
    {
      OFFSET 0 -1.70687 -2.19456
      CHANNELS 3 Zrotation Xrotation Yrotation
      JOINT lShin
      {
        OFFSET 0 -36.8199 0.73152
        CHANNELS 3 Zrotation Xrotation Yrotation
        JOINT lFoot
        {
          OFFSET -0.73152 -45.1104 -5.12064
          CHANNELS 3 Zrotation Xrotation Yrotation
          End Site
          {
            OFFSET 1.1221 -3.69964 12.103
          }
        }
      }
    }
  }
}
MOTION
Frames:	4
Frame Time:	0.00833333
51.9345 109.307 69.2773 0.839754 -13.2029 -169.144 -8.96737 8.39604 12.0379 3.57647 -0.650741 3.2619 -3.77994 10.4833 -0.469131 7.75227 -7.20381 -1.75464 -0 0 0 -0 0 0 -7.36447e-014 7.95108e-014 1.77415e-013 74.0874 24.7903 22.8474 -17.3755 -10.0306 32.6338 -0.00155068 1.12435 0.158037 -2.21219e-009 4.19403e-009 9.2147e-011 -3.83024e-009 7.2548e-009 1.67891e-010 -2.21219e-009 4.19403e-009 9.21343e-011 7.73091 5.47488 0.417314 -2.21218e-009 4.19402e-009 9.2147e-011 2.90554 0.965183 0.102902 -2.21219e-009 4.19403e-009 9.21478e-011 10.2786 0.731801 0.0259123 -2.21219e-009 4.19403e-009 9.21534e-011 2.22167 -0.733487 -0.20892 -7.38087e-014 7.95158e-014 1.77117e-013 -75.7056 -5.9125 2.35216 5.9193 -2.0079 -10.3416 2.91942 42.7181 -7.45627 -3.03437e-009 6.09684e-010 1.45696e-009 -5.17579e-009 1.0255e-009 2.61182e-009 -3.03437e-009 6.09683e-010 1.45697e-009 -7.73091 5.47488 -0.417314 -3.03437e-009 6.09687e-010 1.45696e-009 -2.90554 0.965183 -0.102902 -3.03438e-009 6.09684e-010 1.45696e-009 -10.2786 0.731801 -0.0259123 -3.03436e-009 6.09686e-010 1.45695e-009 -2.22167 -0.733487 0.20892 -2.03217e-016 0 -3.88251e-019 2.61522 -1.89758 6.47518 0.22976 23.2569 1.76465 -0.529141 -11.4892 2.3462 2.03217e-016 0 3.88251e-019 12.0692 -67.0031 9.7786 0.613437 53.2877 -1.70208 3.58728 -17.3926 7.79548 
51.9312 110.289 67.9689 0.751771 -14.0116 -169.535 -9.44338 8.11873 11.648 3.63013 -0.636152 3.1538 -3.69704 10.5295 -0.491339 8.1677 -7.49385 -1.73873 -0 0 0 -0 0 0 -8.61365e-014 1.38377e-013 1.97017e-013 75.3632 23.5259 21.0897 -16.8097 -9.47413 31.372 -0.00395403 1.65991 0.233534 -2.1721e-009 5.00551e-009 -5.59011e-010 -3.76443e-009 8.66036e-009 -9.56838e-010 -2.1721e-009 5.00552e-009 -5.59025e-010 7.73091 5.47488 0.417314 -2.17209e-009 5.00551e-009 -5.59011e-010 2.90554 0.965183 0.102902 -2.1721e-009 5.00552e-009 -5.59011e-010 10.2786 0.731801 0.0259123 -2.1721e-009 5.00552e-009 -5.59006e-010 2.22167 -0.733487 -0.20892 -8.63137e-014 1.3838e-013 1.96736e-013 -75.3563 -3.26825 0.896116 6.19489 -2.1306 -10.8375 2.53345 40.6063 -6.90091 -4.0572e-009 5.66995e-010 2.59699e-009 -6.91762e-009 9.53834e-010 4.60062e-009 -4.0572e-009 5.66995e-010 2.597e-009 -7.73091 5.47488 -0.417314 -4.0572e-009 5.66999e-010 2.59699e-009 -2.90554 0.965183 -0.102902 -4.05721e-009 5.66997e-010 2.59699e-009 -10.2786 0.731801 -0.0259123 -4.0572e-009 5.66998e-010 2.59698e-009 -2.22167 -0.733487 0.20892 -2.03217e-016 0 -3.88251e-019 2.61437 -2.71907 5.84599 0.211834 24.0663 1.70233 -0.761708 -7.2723 1.73637 2.03217e-016 0 3.88251e-019 11.1507 -65.98 8.95656 0.573813 52.1583 -1.63841 3.4502 -18.2117 7.23633 
51.8785 111.309 66.6143 0.557765 -14.7913 -170.069 -9.78316 7.83407 11.1433 3.6421 -0.589857 3.01666 -3.54069 10.6087 -0.484348 8.50086 -7.73089 -1.69768 -0 0 0 -0 0 0 -9.54549e-014 2.30789e-013 1.95325e-013 76.6618 22.0175 19.2248 -16.1393 -8.83376 29.9266 -0.0101745 2.38871 0.336455 -1.82324e-009 5.63624e-009 -1.47863e-009 -3.16601e-009 9.75452e-009 -2.54611e-009 -1.82324e-009 5.63625e-009 -1.47864e-009 7.73091 5.47488 0.417314 -1.82323e-009 5.63624e-009 -1.47863e-009 2.90554 0.965183 0.102902 -1.82323e-009 5.63625e-009 -1.47863e-009 10.2786 0.731801 0.0259123 -1.82324e-009 5.63625e-009 -1.47862e-009 2.22167 -0.733487 -0.20892 -9.56239e-014 2.30788e-013 1.95098e-013 -74.7955 0.560135 -0.625912 6.58304 -2.302 -11.5457 2.05227 37.4226 -6.14742 -5.43374e-009 4.53533e-010 4.32269e-009 -9.25862e-009 7.59069e-010 7.60573e-009 -5.43373e-009 4.53536e-010 4.3227e-009 -7.73091 5.47488 -0.417314 -5.43373e-009 4.5354e-010 4.32269e-009 -2.90554 0.965183 -0.102902 -5.43374e-009 4.53539e-010 4.32269e-009 -10.2786 0.731801 -0.0259123 -5.43373e-009 4.53539e-010 4.32268e-009 -2.22167 -0.733487 0.20892 -2.03217e-016 0 -3.88251e-019 2.65924 -3.75063 4.99925 0.193777 25.2067 1.63421 -0.904683 -2.76958 1.05627 2.03217e-016 0 3.88251e-019 10.2181 -64.7186 8.07843 0.530242 50.6998 -1.5565 3.21726 -18.8829 6.5297 
51.8502 112.322 65.2771 0.340992 -15.4852 -170.665 -10.0413 7.6031 10.5744 3.64786 -0.528238 2.86234 -3.3925 10.7027 -0.469531 8.76902 -7.94992 -1.64983 -0 0 0 -0 0 0 -9.82999e-014 3.17535e-013 1.74925e-013 77.8765 20.3479 17.2978 -15.4229 -8.1719 28.4376 -0.0178073 3.35269 0.47235 -1.30441e-009 5.88321e-009 -2.30141e-009 -2.27301e-009 1.01846e-008 -3.9691e-009 -1.30441e-009 5.88322e-009 -2.30143e-009 7.73091 5.47488 0.417314 -1.30441e-009 5.88321e-009 -2.30141e-009 2.90554 0.965183 0.102902 -1.3044e-009 5.88321e-009 -2.30141e-009 10.2786 0.731801 0.0259123 -1.30441e-009 5.88321e-009 -2.30141e-009 2.22167 -0.733487 -0.20892 -9.84533e-014 3.17531e-013 1.74754e-013 -74.0688 4.78201 -2.14104 7.08624 -2.53929 -12.4569 1.63508 33.9532 -5.41481 -6.51794e-009 3.30251e-010 5.87607e-009 -1.10997e-008 5.47406e-010 1.0306e-008 -6.51794e-009 3.30258e-010 5.87608e-009 -7.73091 5.47488 -0.417314 -6.51793e-009 3.30261e-010 5.87607e-009 -2.90554 0.965183 -0.102902 -6.51794e-009 3.30261e-010 5.87607e-009 -10.2786 0.731801 -0.0259123 -6.51794e-009 3.3026e-010 5.87606e-009 -2.22167 -0.733487 0.20892 -2.03217e-016 0 -3.88251e-019 2.70355 -5.06898 4.12494 0.164494 26.8082 1.56576 -0.94447 1.67827 0.243223 2.03217e-016 0 3.88251e-019 9.11606 -63.3199 6.9984 0.488517 49.1014 -1.46869 2.9601 -19.4598 5.82691 
